<svg version="1.1" xmlns="http://www.w3.org/2000/svg" xmlns:xlink="http://www.w3.org/1999/xlink" width="116.50094" height="103.45248" viewBox="0,0,116.50094,103.45248"><g transform="translate(-181.72918,-128.29652)"><g data-paper-data="{&quot;isPaintingLayer&quot;:true}" fill-rule="nonzero" stroke-linecap="butt" stroke-linejoin="miter" stroke-miterlimit="10" stroke-dasharray="" stroke-dashoffset="0" style="mix-blend-mode: normal"><path d="M229.1225,194.6793c0,0 9.391,-1.8197 12.7071,-2.7992c3.3139,-0.978 8.8551,-3.4197 8.8551,-3.4197c0,0 0.9915,13.9471 -7.3816,15.7448c-8.3718,1.8011 -12.1025,-4.1373 -14.1806,-9.5259z" fill="#ffccf2" stroke="#231f20" stroke-width="2.07326"/><path d="M197.8728,195.9653c-11.3264,-10.4295 -16.1366,-20.9078 -16.1202,-35.1156c-0.492,-10.1856 6.8223,-25.2857 16.7781,-28.938c4.3953,-2.2325 19.6977,-6.9123 27.7143,0.069c6.4975,3.2702 13.048,16.8915 13.048,16.8915l1.7815,-3.9c10.0674,-22.0395 42.2093,-21.7097 53.3946,0.5479c3.5484,7.0606 5.938,17.387 0.7916,30.6293c-7.3546,16.8282 -57.7199,55.5996 -57.7199,55.5996c0,0 -33.5241,-30.1265 -39.668,-35.7837z" fill="#ff0000" stroke="none" stroke-width="0.18069"/><g fill="#000000" stroke="none" stroke-width="1" font-family="&quot;Helvetica Neue&quot;, Helvetica, Arial, sans-serif" font-weight="400" font-size="16" text-anchor="start"/><g fill="#000000" stroke="none" stroke-width="1" font-family="&quot;Helvetica Neue&quot;, Helvetica, Arial, sans-serif" font-weight="400" font-size="16" text-anchor="start"/></g></g></svg>