<svg version="1.1" xmlns="http://www.w3.org/2000/svg" xmlns:xlink="http://www.w3.org/1999/xlink" width="74.77684" height="73.17368" viewBox="0,0,74.77684,73.17368"><g transform="translate(-202.34573,-143.47073)"><g data-paper-data="{&quot;isPaintingLayer&quot;:true}" fill="#ffff00" fill-rule="nonzero" stroke="#000000" stroke-width="0" stroke-linecap="butt" stroke-linejoin="miter" stroke-miterlimit="10" stroke-dasharray="" stroke-dashoffset="0" style="mix-blend-mode: normal"><path d="M258.81297,216.52921c-1.75997,1.6017 -21.9431,-14.02872 -21.9431,-14.02872c0,0 -21.80593,12.07898 -24.00174,10.13031c-2.60513,-2.31192 6.55989,-25.21219 6.55989,-25.21219c0,0 -17.96255,-17.53523 -17.04855,-19.6968c0.56082,-1.32632 26.0032,-1.55149 26.0032,-1.55149c0,0 11.19534,-22.74228 13.46048,-22.69954c2.53462,0.04783 9.51847,24.64874 9.51847,24.64874c0,0 25.51722,3.00383 25.75891,5.91293c0.23858,2.87173 -20.51449,16.54157 -20.51449,16.54157c0,0 4.41008,23.95016 2.20693,25.95519z"/></g></g></svg>